#!OML:ASF H:\Dans Jumps\Project 1\Capture day 1\Session 1\subject.ASF
:FULLY-SPECIFIED
:DEGREES
528
root 0.307643 17.4381 3.28078 7.39175 -1.04568 -0.702607
lowerback -6.99459 -0.311652 -1.59563
upperback 2.19462 -0.346101 1.34382
thorax 6.23885 -0.261034 2.25905
lowerneck -3.16968 0.323335 -1.02471
upperneck -9.35075 0.277361 -2.2483
head -2.39931 0.225195 -0.541237
rclavicle 5.96354e-016 5.76476e-015
rhumerus 21.3171 54.0141 0.00911963
rradius 82.8834
rwrist 13.9077
rhand -11.619 -16.705
rfingers 7.12502
rthumb 14.4242 -46.1838
lclavicle 5.96354e-016 5.76476e-015
lhumerus 4.93957 -54.1997 8.55557
lradius 84.8034
lwrist 17.0771
lhand -32.2305 -8.75146
lfingers 7.12502
lthumb -5.47132 21.1579
rfemur -18.7184 -5.56422 17.1048
rtibia 33.8041
rfoot -19.2571 -7.33949
rtoes 9.19552
lfemur -16.4632 8.31965 -17.4411
ltibia 30.0093
lfoot -16.1268 11.7783
ltoes 5.1343
529
root 0.309012 17.4369 3.28124 7.37033 -1.01399 -0.677351
lowerback -6.8077 -0.339795 -1.61226
upperback 2.02198 -0.387338 1.40734
thorax 5.95267 -0.2785 2.32913
lowerneck -2.21074 0.518451 -0.745975
upperneck -9.37648 0.4676 -2.97537
head -2.57809 0.336299 -0.828001
rclavicle -4.44781e-015 -4.96962e-015
rhumerus 22.9886 53.4776 2.01182
rradius 83.6051
rwrist 13.5423
rhand -11.3439 -16.3412
rfingers 7.12502
rthumb 14.6892 -45.8008
lclavicle -4.44781e-015 -4.96962e-015
lhumerus 5.48342 -53.455 7.6228
lradius 85.5919
lwrist 17.8743
lhand -32.1281 -8.52332
lfingers 7.12502
lthumb -5.37246 21.3886
rfemur -18.6945 -5.55517 17.067
rtibia 33.8258
rfoot -19.2983 -7.34886
rtoes 9.28767
lfemur -16.4458 8.33624 -17.4707
ltibia 30.0049
lfoot -16.1097 11.735
ltoes 5.06646
530
root 0.310337 17.4356 3.28176 7.34986 -0.966946 -0.672007
lowerback -6.61492 -0.347075 -1.57874
upperback 1.83437 -0.403775 1.45085
thorax 5.64618 -0.281055 2.35307
lowerneck -1.27775 0.607728 -0.758852
upperneck -9.34272 0.539805 -3.39368
head -2.73565 0.391784 -0.967609
rclavicle 2.31087e-015 -3.97569e-015
rhumerus 24.4864 52.8073 3.77535
rradius 84.1792
rwrist 13.3166
rhand -11.0109 -15.9479
rfingers 7.12502
rthumb 15.0099 -45.3838
lclavicle 2.31087e-015 -3.97569e-015
lhumerus 6.02766 -52.6128 6.70851
lradius 86.2572
lwrist 18.6507
lhand -31.6354 -8.51486
lfingers 7.12502
lthumb -4.89669 21.4086
rfemur -18.6607 -5.56098 17.0568
rtibia 33.836
rfoot -19.3245 -7.40126
rtoes 9.16827
lfemur -16.4292 8.38496 -17.4749
ltibia 29.9997
lfoot -16.1167 11.6486
ltoes 5.05417
531
root 0.312292 17.4343 3.28617 7.3217 -0.942164 -0.612871
lowerback -6.41608 -0.352377 -1.57839
upperback 1.60136 -0.411899 1.45035
thorax 5.28889 -0.278877 2.35072
lowerneck -0.369854 0.778351 -0.498556
upperneck -9.07532 0.723749 -3.94723
head -2.80913 0.496023 -1.2002
rclavicle -2.03754e-015 9.74045e-015
rhumerus 25.5129 52.0872 5.05163
rradius 84.7437
rwrist 13.3847
rhand -10.2768 -15.2424
rfingers 7.12502
rthumb 15.7171 -44.6242
lclavicle -2.03754e-015 9.74045e-015
lhumerus 6.55742 -51.8266 5.80849
lradius 86.8208
lwrist 19.3525
lhand -30.9475 -8.50931
lfingers 7.12502
lthumb -4.23247 21.4284
rfemur -18.6115 -5.57437 16.9779
rtibia 33.8433
rfoot -19.3606 -7.42159
rtoes 9.10568
lfemur -16.3805 8.41798 -17.5383
ltibia 29.9816
lfoot -16.1356 11.5756
ltoes 5.09888
532
root 0.313964 17.4332 3.29108 7.28673 -0.89205 -0.592374
lowerback -6.23364 -0.370259 -1.54434
upperback 1.35995 -0.440166 1.46689
thorax 4.93406 -0.285938 2.34521
lowerneck 0.608987 1.02882 -0.0701725
upperneck -8.6398 1.02359 -4.59601
head -2.83583 0.65562 -1.49816
rclavicle 6.83322e-015 -5.1684e-015
rhumerus 26.5159 51.211 6.14888
rradius 85.1617
rwrist 13.4848
rhand -9.27649 -14.5985
rfingers 7.12502
rthumb 16.6803 -43.9018
lclavicle 6.83322e-015 -5.1684e-015
lhumerus 7.2129 -51.0215 4.84211
lradius 87.1639
lwrist 19.9414
lhand -30.2323 -8.57513
lfingers 7.12502
lthumb -3.54181 21.3752
rfemur -18.5376 -5.59324 16.9429
rtibia 33.8429
rfoot -19.4202 -7.42596
rtoes 9.14942
lfemur -16.3241 8.46421 -17.5587
ltibia 29.9579
lfoot -16.1429 11.4895
ltoes 4.99176
